<svg width="50" height="50" viewBox="0 0 50 50" fill="none" xmlns="http://www.w3.org/2000/svg">
<circle cx="25" cy="25" r="25" fill="#F4F3F6"/>
<path d="M26.9584 25L32.9306 19.0417C33.1922 18.7802 33.3391 18.4254 33.3391 18.0556C33.3391 17.6857 33.1922 17.331 32.9306 17.0695C32.6691 16.8079 32.3144 16.661 31.9445 16.661C31.5747 16.661 31.2199 16.8079 30.9584 17.0695L25.0001 23.0417L19.0417 17.0695C18.7802 16.8079 18.4255 16.661 18.0556 16.661C17.6858 16.661 17.3311 16.8079 17.0695 17.0695C16.808 17.331 16.6611 17.6857 16.6611 18.0556C16.6611 18.4254 16.808 18.7802 17.0695 19.0417L23.0417 25L17.0695 30.9584C16.9393 31.0875 16.836 31.2411 16.7655 31.4103C16.695 31.5796 16.6587 31.7611 16.6587 31.9445C16.6587 32.1278 16.695 32.3094 16.7655 32.4786C16.836 32.6479 16.9393 32.8015 17.0695 32.9306C17.1986 33.0608 17.3523 33.1641 17.5215 33.2346C17.6907 33.3051 17.8723 33.3414 18.0556 33.3414C18.239 33.3414 18.4205 33.3051 18.5898 33.2346C18.759 33.1641 18.9126 33.0608 19.0417 32.9306L25.0001 26.9584L30.9584 32.9306C31.0875 33.0608 31.2411 33.1641 31.4104 33.2346C31.5796 33.3051 31.7612 33.3414 31.9445 33.3414C32.1279 33.3414 32.3094 33.3051 32.4787 33.2346C32.6479 33.1641 32.8015 33.0608 32.9306 32.9306C33.0608 32.8015 33.1641 32.6479 33.2346 32.4786C33.3052 32.3094 33.3415 32.1278 33.3415 31.9445C33.3415 31.7611 33.3052 31.5796 33.2346 31.4103C33.1641 31.2411 33.0608 31.0875 32.9306 30.9584L26.9584 25Z" fill="black"/>
</svg>
